<svg width="570" height="228" viewBox="0 0 570 228" fill="none" xmlns="http://www.w3.org/2000/svg">
<rect y="5.84595" width="570" height="215.473" fill="black"/>
<path d="M544.002 3.26072C554.242 3.97767 570 7.03611 570 7.03611L570 12.5276L0 12.5275L1.31134e-06 0.000114786C1.31134e-06 0.000114786 59.3908 8.32626 97.582 7.03608C115.37 6.43517 125.209 4.03299 142.99 3.26069C180.257 1.64199 201.137 7.74346 238.435 7.03609C263.65 6.55787 277.681 3.76778 302.896 3.2607C341.304 2.48828 362.861 9.53672 401.19 7.0361C415.426 6.10734 423.258 3.77289 437.516 3.26071C459.321 2.47747 471.433 7.18053 493.252 7.03611C513.13 6.90454 524.176 1.87269 544.002 3.26072Z" fill="#0A0A0A"/>
<path d="M544.002 227.245C554.242 226.528 570 223.469 570 223.469L570 217.978L0 217.978L1.04907e-06 228C1.04907e-06 228 59.3908 222.179 97.582 223.469C115.37 224.07 125.209 226.472 142.99 227.245C180.257 228.863 201.137 222.762 238.435 223.469C263.65 223.948 277.681 226.738 302.896 227.245C341.304 228.017 362.861 220.969 401.19 223.469C415.426 224.398 423.258 226.732 437.516 227.245C459.321 228.028 471.433 223.325 493.252 223.469C513.13 223.601 524.176 228.633 544.002 227.245Z" fill="#0A0A0A"/>
</svg>
