<svg width="1920" height="54" viewBox="0 0 1920 54" fill="none" xmlns="http://www.w3.org/2000/svg">
<path d="M87.5726 39.5565C53.0782 36.4962 0 23.4409 0 23.4409V0H1920V53.4746C1920 53.4746 1719.95 17.9336 1591.3 23.4409C1531.39 26.006 1498.24 36.2599 1438.35 39.5565C1312.82 46.4661 1242.49 20.4214 1116.85 23.4409C1031.92 25.4822 984.652 37.392 899.719 39.5565C770.343 42.8537 697.731 12.7668 568.622 23.4409C520.67 27.4054 494.29 37.3702 446.261 39.5565C372.813 42.8999 332.016 22.8244 258.519 23.4409C191.563 24.0025 154.354 45.4814 87.5726 39.5565Z" fill="white"/>
</svg>
